# xmcd 
#
# Track frame offsets:
# 150
# 23095
# 39477
# 56177
# 73545
# 92060
# 108835
# 121850
# 140227
# 160030
# 179100
#
# Disc length: 2690 seconds
#
# Revision: 0
# Processed by: cddbd v1.4b41PL1 Copyright (c) Steve Scherf et al.
# Submitted via: GrayWolf CD JukeBox 01.01.06
#
DISCID=980a800b
DTITLE=Jan Smith - Rain
DYEAR=1900
DGENRE=
TTITLE0=I Can't Believe You Let Me Go
TTITLE1=Don't Let The Feelin' Fool Ya'
TTITLE2=What A Heart Will Do For Love
TTITLE3=In The Shadow
TTITLE4=Last Call
TTITLE5=Ordinary Man
TTITLE6=Wherever You Love Me
TTITLE7=Woman In The Moon
TTITLE8=Another Time, Another Place
TTITLE9=He Love Me Like An Angel
TTITLE10=Rain
EXTD=
EXTT0=
EXTT1=
EXTT2=
EXTT3=
EXTT4=
EXTT5=
EXTT6=
EXTT7=
EXTT8=
EXTT9=
EXTT10=
PLAYORDER=
